<?xml version="1.0" standalone="no"?><!DOCTYPE svg PUBLIC "-//W3C//DTD SVG 1.1//EN" "http://www.w3.org/Graphics/SVG/1.1/DTD/svg11.dtd"><svg class="icon" width="200px" height="200.00px" viewBox="0 0 1024 1024" version="1.1" xmlns="http://www.w3.org/2000/svg"><path fill="#000000" d="M406.186667 143.36C382.293333 122.88 320.853333 68.266667 208.213333 68.266667 112.64 68.266667 17.066667 153.6 17.066667 341.333333c0 170.666667 27.306667 259.413333 95.573333 290.133334 27.306667 10.24 58.026667 17.066667 85.333333 17.066666 37.546667 0 71.68-13.653333 92.16-40.96 23.893333-23.893333 34.133333-58.026667 34.133334-98.986666 0-98.986667-71.68-136.533333-119.466667-136.533334-34.133333 0-47.786667 30.72-51.2 47.786667 0 6.826667 0 10.24 6.826667 13.653333 3.413333 10.24 10.24 10.24 13.653333 10.24 20.48-6.826667 47.786667 10.24 47.786667 51.2 0 6.826667-20.48 17.066667-34.133334 17.066667-17.066667 0-64.853333-23.893333-68.266666-136.533333 0-34.133333 6.826667-58.026667 23.893333-75.093334C163.84 279.893333 187.733333 273.066667 204.8 273.066667c10.24 0 20.48 0 30.72 3.413333 3.413333 0 10.24 0 13.653333-3.413333 13.653333-10.24 27.306667-17.066667 40.96-23.893334 3.413333 0 6.826667-3.413333 10.24-10.24 6.826667-10.24 13.653333-20.48 20.48-27.306666C290.133333 180.906667 269.653333 170.666667 238.933333 170.666667c-34.133333 0-78.506667 23.893333-92.16 30.72-10.24 6.826667-20.48 3.413333-23.893333-3.413334-6.826667-10.24-3.413333-20.48 3.413333-23.893333C129.706667 170.666667 187.733333 136.533333 238.933333 136.533333c44.373333 0 75.093333 20.48 109.226667 54.613334 13.653333-6.826667 27.306667-13.653333 47.786667-17.066667 6.826667 0 10.24-6.826667 13.653333-10.24 3.413333-6.826667 0-13.653333-3.413333-20.48zM580.266667 921.6c-10.24 0-20.48 0-30.72-3.413333-6.826667 3.413333-13.653333 3.413333-30.72 3.413333h-13.653334c-13.653333 0-23.893333 0-30.72-3.413333-10.24 0-20.48 3.413333-30.72 3.413333h-10.24c3.413333 6.826667 6.826667 13.653333 13.653334 20.48 17.066667 17.066667 37.546667 17.066667 58.026666 17.066667H525.653333c17.066667 0 34.133333 0 51.2-17.066667 3.413333-3.413333 10.24-10.24 13.653334-20.48H580.266667zM819.2 68.266667c-81.92 0-157.013333 27.306667-204.8 75.093333-3.413333 3.413333-6.826667 10.24-3.413333 17.066667s6.826667 10.24 13.653333 13.653333c23.893333 3.413333 40.96 10.24 58.026667 20.48 37.546667-27.306667 71.68-40.96 112.64-40.96 51.2 0 92.16 23.893333 95.573333 23.893333 6.826667 3.413333 10.24 13.653333 6.826667 23.893334-3.413333 6.826667-13.653333 10.24-23.893334 6.826666 0 0-37.546667-20.48-78.506666-20.48-30.72 0-58.026667 10.24-85.333334 30.72 6.826667 6.826667 10.24 13.653333 13.653334 23.893334 3.413333 3.413333 3.413333 6.826667 10.24 10.24 13.653333 6.826667 23.893333 13.653333 37.546666 23.893333 3.413333 3.413333 10.24 3.413333 13.653334 3.413333 10.24-6.826667 20.48-6.826667 30.72-6.826666 17.066667 0 44.373333 6.826667 61.44 27.306666 17.066667 17.066667 27.306667 44.373333 23.893333 75.093334-3.413333 116.053333-54.613333 139.946667-68.266667 139.946666-6.826667 0-27.306667-13.653333-27.306666-27.306666 0-10.24 3.413333-47.786667 27.306666-47.786667h17.066667c6.826667 0 17.066667-6.826667 17.066667-17.066667 0-3.413333 0-6.826667-3.413334-6.826666 0-13.653333-13.653333-40.96-44.373333-40.96-47.786667 0-119.466667 37.546667-119.466667 136.533333 0 78.506667 58.026667 139.946667 133.12 139.946667 27.306667 0 54.613333-6.826667 78.506667-23.893334 64.853333-37.546667 92.16-126.293333 92.16-286.72 3.413333-163.84-71.68-273.066667-184.32-273.066666z"  /><path fill="#000000" d="M771.413333 331.093333c-6.826667-13.653333-13.653333-23.893333-27.306666-34.133333-3.413333-3.413333-6.826667-6.826667-13.653334-10.24l-3.413333-3.413333c-3.413333-3.413333-6.826667-3.413333-10.24-3.413334-6.826667-3.413333-13.653333-3.413333-20.48-6.826666 0-6.826667-3.413333-13.653333-6.826667-23.893334 0-3.413333-3.413333-6.826667-6.826666-10.24l-3.413334-3.413333c-13.653333-13.653333-34.133333-23.893333-58.026666-27.306667-10.24-3.413333-17.066667-3.413333-23.893334-3.413333-23.893333 0-61.44 0-85.333333 23.893333-23.893333-23.893333-64.853333-23.893333-85.333333-23.893333-6.826667 0-17.066667 0-23.893334 3.413333-23.893333 3.413333-44.373333 13.653333-58.026666 27.306667L341.333333 238.933333c-3.413333 3.413333-6.826667 6.826667-6.826666 13.653334l-10.24 20.48c-6.826667 0-13.653333 3.413333-23.893334 6.826666-10.24 3.413333-20.48 10.24-34.133333 17.066667-6.826667 6.826667-13.653333 17.066667-20.48 27.306667-3.413333 3.413333-6.826667 10.24-3.413333 13.653333 0 6.826667 6.826667 10.24 10.24 10.24 30.72 10.24 105.813333 51.2 105.813333 160.426667 0 30.72-13.653333 102.4-23.893333 153.6-6.826667 40.96-10.24 61.44-10.24 68.266666v34.133334c0 78.506667 75.093333 119.466667 119.466666 119.466666 20.48 0 37.546667-6.826667 51.2-20.48V785.066667c0-37.546667-47.786667-51.2-78.506666-40.96-6.826667 3.413333-10.24 0-17.066667-3.413334s-6.826667-6.826667-6.826667-13.653333c0-40.96 61.44-85.333333 119.466667-85.333333 54.613333 0 112.64 40.96 119.466667 78.506666v6.826667c0 10.24-6.826667 17.066667-17.066667 17.066667h-6.826667c-30.72-10.24-78.506667 3.413333-78.506666 40.96v78.506666c13.653333 10.24 30.72 20.48 51.2 20.48 44.373333 0 119.466667-40.96 119.466666-119.466666v-27.306667-6.826667c0-6.826667-3.413333-23.893333-10.24-61.44-10.24-47.786667-23.893333-122.88-23.893333-160.426666 0-102.4 61.44-143.36 95.573333-157.013334l10.24-10.24c3.413333 0 0-6.826667 0-10.24zM375.466667 409.6c-10.24 0-17.066667-6.826667-17.066667-17.066667s6.826667-17.066667 17.066667-17.066666 17.066667 6.826667 17.066666 17.066666-6.826667 17.066667-17.066666 17.066667z m51.2 75.093333c-3.413333 6.826667-10.24 10.24-17.066667 10.24h-6.826667c-10.24-3.413333-13.653333-13.653333-10.24-20.48 3.413333-10.24 13.653333-23.893333 23.893334-40.96 20.48-30.72 44.373333-68.266667 44.373333-105.813333 0-13.653333 6.826667-20.48 17.066667-20.48s17.066667 6.826667 17.066666 17.066667c0 47.786667-27.306667 92.16-51.2 126.293333-6.826667 13.653333-13.653333 23.893333-17.066666 34.133333z m102.4 112.64c0 10.24-6.826667 17.066667-17.066667 17.066667s-17.066667-6.826667-17.066667-17.066667v-102.4c0-10.24 6.826667-17.066667 17.066667-17.066666s17.066667 6.826667 17.066667 17.066666v102.4z m92.16-119.466666H614.4c-6.826667 0-13.653333-3.413333-17.066667-10.24-3.413333-10.24-13.653333-20.48-20.48-30.72-20.48-27.306667-47.786667-64.853333-47.786666-109.226667 0-13.653333 6.826667-20.48 17.066666-20.48s17.066667 6.826667 17.066667 17.066667c0 37.546667 20.48 64.853333 40.96 88.746666 10.24 13.653333 20.48 27.306667 27.306667 40.96 3.413333 10.24-3.413333 20.48-10.24 23.893334z m27.306666-68.266667c-10.24 0-17.066667-6.826667-17.066666-17.066667s6.826667-17.066667 17.066666-17.066666 17.066667 6.826667 17.066667 17.066666-6.826667 17.066667-17.066667 17.066667z m71.68-109.226667z"  /></svg>