<?xml version="1.0" standalone="no"?><!DOCTYPE svg PUBLIC "-//W3C//DTD SVG 1.1//EN" "http://www.w3.org/Graphics/SVG/1.1/DTD/svg11.dtd"><svg class="icon" width="200px" height="200.00px" viewBox="0 0 1024 1024" version="1.1" xmlns="http://www.w3.org/2000/svg"><path fill="#000000" d="M290.046126 409.784674l13.64923 13.64923c17.061537 17.061537 37.535381 30.710766 64.83384 30.710766 20.473844 0 37.535381-6.824615 54.596917-20.473844 17.061537-13.649229 27.298459-34.123074 30.710767-58.009226 3.412307-23.886152-6.824615-44.359996-20.473844-61.421532l-17.061537-17.061537-3.412308-3.412307C409.476884 164.098544 341.230737 136.800085 283.221511 136.800085c-6.824615 0-10.236922 3.412307-13.649229 6.824615-27.298459 34.123074-34.123074 68.246147-27.298459 98.956913-30.710766-6.824615-61.421533 0-98.956914 27.298459-3.412307 3.412307-6.824615 6.824615-6.824614 13.64923C136.492295 341.538527 163.790754 409.784674 290.046126 409.784674zM385.590732 658.883112l-54.596917 23.886151h-13.64923l-170.615368-68.246147 170.615368 160.378446c6.824615 6.824615 6.824615 17.061537 0 23.886152-3.412307 3.412307-6.824615 6.824615-13.649229 6.824615-3.412307 0-6.824615 0-10.236923-3.412308l-238.861515-221.799979c-6.824615-6.824615-6.824615-13.649229-3.412308-20.473844s17.061537-17.061537 23.886152-13.649229l249.098438 102.369221 47.772303-20.473844c-17.061537-47.772303-27.298459-98.956914-30.710766-146.729217-17.061537-3.412307-34.123074-10.236922-51.184611-23.886152-6.824615-6.824615-17.061537-6.824615-23.886151 0l-23.886152 23.886152c-20.473844 20.473844-78.483069 30.710766-156.966139 30.710766-37.535381 0-68.246147-3.412307-68.246147-3.412307H10.236922c-3.412307 0-3.412307 3.412307-3.412307 3.412307-6.824615 10.236922-6.824615 13.649229-6.824615 17.061537v102.369221c0 10.236922 6.824615 17.061537 17.061537 17.061537s17.061537-6.824615 17.061537-17.061537v-27.298459c17.061537 40.947688 34.123074 102.369221 34.123073 163.790754C68.246147 890.920013 3.412307 996.701541 3.412307 996.701541c-3.412307 6.824615-3.412307 17.061537 3.412308 23.886152 3.412307 3.412307 6.824615 3.412307 10.236922 3.412307 3.412307 0 10.236922-3.412307 13.649229-6.824615 102.369221-109.193836 378.766118-146.729217 382.178425-146.729216 6.824615 0 10.236922-3.412307 13.64923-10.236923 0-3.412307 27.298459-47.772303 92.132299-75.070762-61.421533-20.473844-105.781528-68.246147-133.079988-126.255372zM1020.279903 7.132405c-6.824615-6.824615-13.649229-10.236922-23.886152-3.412308C996.393751 3.720097 887.199915 68.553937 767.769157 68.553937c-61.421533 0-122.843065-17.061537-163.790753-34.123073h27.298459c10.236922 0 17.061537-6.824615 17.061537-17.061537s-6.824615-17.061537-17.061537-17.061537h-102.369221c-3.412307 0-6.824615 0-6.824615 3.412307-3.412307 0-3.412307 3.412307-3.412307 3.412308-6.824615 6.824615-6.824615 6.824615-6.824615 10.236922 6.824615 75.070762 3.412307 208.150749-30.710766 242.273823l-17.061537 17.061537c-6.824615 6.824615-6.824615 13.649229-3.412308 20.473844 10.236922 13.649229 13.649229 27.298459 17.061537 40.947688 47.772303 3.412307 98.956914 10.236922 146.729217 27.298459l23.886152-40.947688-81.895377-232.036901v-3.412307c0 3.412307 3.412307 6.824615 3.412307 10.236922l54.596918 54.596918L682.461473 317.652375v13.64923l-20.473844 51.18461c61.421533 27.298459 116.01845 68.246147 143.316909 129.66768 34.123074-71.658455 88.719992-102.369221 92.132299-105.781528 6.824615-3.412307 10.236922-10.236922 10.236922-13.64923 0-3.412307 3.412307-259.33536 112.606144-361.704581 3.412307-6.824615 6.824615-17.061537 0-23.886151zM590.329174 71.966245s-3.412307 0 0 0c-3.412307 0 0 0 0 0z m-6.824614-3.412308H580.092252h3.412308z m-6.824615 0c-3.412307 0-3.412307 0 0 0z m-6.824615 3.412308z m-6.824615 10.236922s0 3.412307 0 0c0 3.412307 0 0 0 0z m3.412308-6.824615s0 3.412307 0 0c0 3.412307 0 0 0 0z"  /><path fill="#000000" d="M815.541461 590.636964c-3.412307-6.824615-10.236922-10.236922-13.64923-10.236922H784.830694v-10.236922c0-6.824615-3.412307-13.649229-3.412307-23.886151v-6.824615c-3.412307-6.824615-3.412307-10.236922-6.824615-17.061537 0-3.412307-3.412307-6.824615-3.412307-10.236922 0-3.412307-3.412307-6.824615-6.824615-10.236922-3.412307-6.824615-6.824615-10.236922-10.236922-13.64923l-3.412307-3.412307c-23.886152-34.123074-61.421533-58.009225-98.956914-75.070762-10.236922-3.412307-20.473844-10.236922-30.710766-13.649229-44.359996-13.649229-92.132299-23.886152-133.079988-23.886152 0 3.412307 0 10.236922-3.412307 13.64923 0 6.824615-3.412307 10.236922-6.824615 17.061536v3.412308c-3.412307 3.412307-3.412307 10.236922-6.824614 13.649229 0 3.412307-3.412307 6.824615-3.412308 6.824615-3.412307 3.412307-3.412307 6.824615-6.824615 10.236922-3.412307 6.824615-10.236922 10.236922-13.649229 17.061537-6.824615 3.412307-13.649229 10.236922-20.473844 13.649229-3.412307 0-3.412307 3.412307-6.824615 3.412308-10.236922 3.412307-13.649229 6.824615-17.061537 6.824614-6.824615 3.412307-17.061537 3.412307-23.886151 3.412308 0 6.824615 0 10.236922 3.412307 17.061537v20.473844c0 6.824615 3.412307 13.649229 3.412307 20.473844 0 3.412307 0 6.824615 3.412308 10.236922 3.412307 10.236922 3.412307 20.473844 6.824614 30.710766v3.412308c20.473844 68.246147 58.009225 146.729217 139.904603 174.027675 6.824615 3.412307 17.061537 3.412307 27.298458 6.824615h17.061537v34.123074c0 6.824615 3.412307 13.649229 10.236922 13.649229l68.246148 34.123074c3.412307 0 3.412307 3.412307 6.824614 3.412307 6.824615 0 13.649229-3.412307 13.64923-10.236922 3.412307-6.824615 0-17.061537-6.824615-23.886151l-58.009225-23.886152v-20.473844c54.596918 0 116.01845 17.061537 180.85229 44.359996h6.824615c10.236922 0 17.061537-6.824615 17.061537-17.061537 0-3.412307 0-6.824615-3.412307-10.236922-30.710766-68.246147-40.947688-126.255373-37.535381-177.439983h13.649229l30.710766 58.009225c3.412307 6.824615 10.236922 10.236922 13.64923 10.236922 3.412307 0 6.824615 0 6.824614-3.412307 6.824615-3.412307 10.236922-13.649229 6.824615-23.886152l-34.123073-61.421533z"  /></svg>