<?xml version="1.0" standalone="no"?><!DOCTYPE svg PUBLIC "-//W3C//DTD SVG 1.1//EN" "http://www.w3.org/Graphics/SVG/1.1/DTD/svg11.dtd"><svg class="icon" width="200px" height="200.00px" viewBox="0 0 1024 1024" version="1.1" xmlns="http://www.w3.org/2000/svg"><path fill="#000000" d="M942.08 512v-51.2c0-17.066667-3.413333-37.546667-3.413333-102.4 0-68.266667 27.306667-143.36 47.786666-197.973333 13.653333-34.133333 20.48-61.44 20.48-78.506667 0-54.613333-34.133333-81.92-102.4-81.92-163.84 0-293.546667 252.586667-331.093333 331.093333-6.826667-10.24-17.066667-17.066667-27.306667-20.48V307.2c0-27.306667 6.826667-78.506667 23.893334-95.573333 3.413333-6.826667 6.826667-6.826667 10.24-6.826667 10.24 0 17.066667-6.826667 17.066666-17.066667S590.506667 170.666667 580.266667 170.666667c-13.653333 0-27.306667 6.826667-34.133334 13.653333-27.306667 30.72-30.72 95.573333-34.133333 116.053333 0-20.48-3.413333-85.333333-34.133333-116.053333-6.826667-6.826667-20.48-13.653333-34.133334-13.653333-10.24 0-17.066667 6.826667-17.066666 17.066666s6.826667 17.066667 17.066666 17.066667c3.413333 0 6.826667 0 10.24 6.826667 17.066667 17.066667 23.893333 68.266667 23.893334 95.573333v3.413333c-10.24 3.413333-20.48 10.24-27.306667 20.48C413.013333 245.76 283.306667 0 119.466667 0 47.786667 0 17.066667 27.306667 17.066667 81.92c0 17.066667 13.653333 44.373333 34.133333 78.506667 30.72 54.613333 68.266667 129.706667 68.266667 197.973333 0 61.44-10.24 78.506667-17.066667 95.573333-6.826667 13.653333-17.066667 27.306667-17.066667 58.026667 0 34.133333 10.24 64.853333 40.96 88.746667-34.133333 34.133333-109.226667 129.706667-109.226666 235.52 0 126.293333 78.506667 187.733333 235.52 187.733333 116.053333 0 204.8-112.64 238.933333-160.426667 3.413333 6.826667 6.826667 10.24 6.826667 13.653334 3.413333 6.826667 10.24 10.24 13.653333 10.24 6.826667 0 13.653333-3.413333 13.653333-10.24l6.826667-13.653334c34.133333 47.786667 122.88 160.426667 238.933333 160.426667 157.013333 0 235.52-64.853333 235.52-187.733333 0-102.4-75.093333-197.973333-109.226666-235.52 34.133333-23.893333 44.373333-54.613333 44.373333-88.746667zM279.893333 191.146667c23.893333 0 47.786667 13.653333 71.68 34.133333 23.893333 23.893333 54.613333 78.506667 78.506667 126.293333-23.893333 40.96-40.96 102.4-40.96 177.493334 0 23.893333 3.413333 54.613333 10.24 85.333333H307.2c-34.133333-58.026667-119.466667-211.626667-119.466667-290.133333 0-75.093333 40.96-133.12 92.16-133.12zM324.266667 887.466667c-88.746667 0-136.533333-40.96-136.533334-119.466667 0-47.786667 44.373333-92.16 85.333334-119.466667h139.946666c13.653333 54.613333 34.133333 109.226667 51.2 153.6-27.306667 30.72-85.333333 85.333333-139.946666 85.333334z m375.466666 0c-54.613333 0-109.226667-51.2-139.946666-85.333334 17.066667-44.373333 40.96-98.986667 54.613333-153.6h133.12c40.96 27.306667 85.333333 68.266667 85.333333 119.466667 3.413333 78.506667-44.373333 119.466667-133.12 119.466667z m13.653334-273.066667h-88.746667c3.413333-23.893333 6.826667-47.786667 6.826667-68.266667 0-71.68-13.653333-143.36-40.96-191.146666 23.893333-47.786667 58.026667-102.4 78.506666-126.293334 23.893333-23.893333 47.786667-34.133333 71.68-34.133333 54.613333 0 95.573333 58.026667 95.573334 133.12s-88.746667 228.693333-122.88 286.72z"  /></svg>