<?xml version="1.0" standalone="no"?><!DOCTYPE svg PUBLIC "-//W3C//DTD SVG 1.1//EN" "http://www.w3.org/Graphics/SVG/1.1/DTD/svg11.dtd"><svg class="icon" width="200px" height="200.00px" viewBox="0 0 1024 1024" version="1.1" xmlns="http://www.w3.org/2000/svg"><path fill="#000000" d="M1006.933333 68.266667c0-6.826667-3.413333-10.24-6.826666-13.653334-6.826667-3.413333-10.24-3.413333-17.066667 0l-184.32 98.986667c-30.72-27.306667-136.533333-102.4-283.306667-102.4s-252.586667 75.093333-283.306666 102.4L40.96 54.613333c-6.826667-3.413333-10.24-3.413333-17.066667 0-3.413333 3.413333-6.826667 6.826667-6.826666 13.653334 0 201.386667 92.16 303.786667 119.466666 331.093333-3.413333 30.72-17.066667 139.946667-17.066666 197.973333 0 61.44 58.026667 102.4 112.64 139.946667C286.72 778.24 341.333333 819.2 341.333333 870.4c0 40.96 20.48 71.68 58.026667 88.746667 27.306667 10.24 64.853333 13.653333 92.16 13.653333h34.133333c40.96 0 153.6 0 153.6-102.4 0-54.613333 54.613333-98.986667 109.226667-143.36 54.613333-44.373333 112.64-88.746667 112.64-150.186667 0-58.026667-13.653333-153.6-17.066667-180.906666 30.72-23.893333 122.88-126.293333 122.88-327.68zM648.533333 187.733333c10.24 0 17.066667 6.826667 17.066667 17.066667s-6.826667 17.066667-17.066667 17.066667-17.066667-6.826667-17.066666-17.066667 6.826667-17.066667 17.066666-17.066667z m-102.4-68.266666c10.24 0 17.066667 6.826667 17.066667 17.066666s-6.826667 17.066667-17.066667 17.066667-17.066667-6.826667-17.066666-17.066667 6.826667-17.066667 17.066666-17.066666z m-34.133333 102.4c10.24 0 17.066667 6.826667 17.066667 17.066666s-6.826667 17.066667-17.066667 17.066667-17.066667-6.826667-17.066667-17.066667 6.826667-17.066667 17.066667-17.066666z m-34.133333-102.4c10.24 0 17.066667 6.826667 17.066666 17.066666s-6.826667 17.066667-17.066666 17.066667-17.066667-6.826667-17.066667-17.066667 6.826667-17.066667 17.066667-17.066666z m-102.4 68.266666c10.24 0 17.066667 6.826667 17.066666 17.066667s-6.826667 17.066667-17.066666 17.066667-17.066667-6.826667-17.066667-17.066667 6.826667-17.066667 17.066667-17.066667z m-170.666667 409.6c-10.24 0-17.066667-6.826667-17.066667-17.066666s6.826667-17.066667 17.066667-17.066667 17.066667 6.826667 17.066667 17.066667-6.826667 17.066667-17.066667 17.066666z m34.133333 34.133334c-10.24 0-17.066667-6.826667-17.066666-17.066667s6.826667-17.066667 17.066666-17.066667 17.066667 6.826667 17.066667 17.066667-6.826667 17.066667-17.066667 17.066667zM290.133333 443.733333c0-27.306667 23.893333-51.2 51.2-51.2s51.2 23.893333 51.2 51.2-23.893333 51.2-51.2 51.2-51.2-23.893333-51.2-51.2z m68.266667 204.8c0 10.24-6.826667 17.066667-17.066667 17.066667s-17.066667-6.826667-17.066666-17.066667c0-34.133333 23.893333-68.266667 51.2-109.226666 23.893333-34.133333 51.2-71.68 51.2-95.573334 0-44.373333-44.373333-105.813333-64.853334-126.293333-6.826667-6.826667-6.826667-17.066667 0-23.893333 6.826667-6.826667 17.066667-6.826667 23.893334 0 3.413333 3.413333 71.68 78.506667 71.68 146.773333 0 37.546667-27.306667 78.506667-54.613334 116.053333-20.48 37.546667-44.373333 68.266667-44.373333 92.16z m238.933333 177.493334c-3.413333 6.826667-10.24 10.24-17.066666 10.24h-6.826667l-61.44-30.72-61.44 30.72H443.733333c-6.826667 0-13.653333-3.413333-17.066666-10.24-3.413333-10.24 0-17.066667 6.826666-23.893334l58.026667-27.306666v-64.853334l-61.44-47.786666c-3.413333-3.413333-6.826667-6.826667-6.826667-10.24s0-10.24 3.413334-13.653334c0 0 37.546667-40.96 81.92-40.96s78.506667 37.546667 81.92 40.96c3.413333 3.413333 3.413333 6.826667 3.413333 13.653334 0 3.413333-3.413333 10.24-6.826667 10.24l-61.44 47.786666v64.853334l58.026667 27.306666c13.653333 6.826667 17.066667 17.066667 13.653333 23.893334z m85.333334-160.426667c-10.24 0-17.066667-6.826667-17.066667-17.066667 0-23.893333-23.893333-54.613333-47.786667-88.746666-27.306667-37.546667-54.613333-78.506667-54.613333-116.053334 0-68.266667 68.266667-143.36 71.68-146.773333 6.826667-6.826667 17.066667-6.826667 23.893333 0s6.826667 17.066667 0 23.893333c0 0-64.853333 71.68-64.853333 126.293334 0 27.306667 23.893333 61.44 51.2 95.573333 27.306667 37.546667 51.2 75.093333 51.2 109.226667 3.413333 6.826667-3.413333 13.653333-13.653333 13.653333z m0-170.666667c-27.306667 0-51.2-23.893333-51.2-51.2s23.893333-51.2 51.2-51.2 51.2 23.893333 51.2 51.2-23.893333 51.2-51.2 51.2z m102.4 136.533334c-10.24 0-17.066667-6.826667-17.066667-17.066667s6.826667-17.066667 17.066667-17.066667 17.066667 6.826667 17.066666 17.066667-6.826667 17.066667-17.066666 17.066667z m34.133333-34.133334c-10.24 0-17.066667-6.826667-17.066667-17.066666s6.826667-17.066667 17.066667-17.066667 17.066667 6.826667 17.066667 17.066667-6.826667 17.066667-17.066667 17.066666z"  /></svg>