<?xml version="1.0" standalone="no"?><!DOCTYPE svg PUBLIC "-//W3C//DTD SVG 1.1//EN" "http://www.w3.org/Graphics/SVG/1.1/DTD/svg11.dtd"><svg class="icon" width="200px" height="200.00px" viewBox="0 0 1024 1024" version="1.1" xmlns="http://www.w3.org/2000/svg"><path fill="#000000" d="M375.466667 426.666667m-17.066667 0a17.066667 17.066667 0 1 0 34.133333 0 17.066667 17.066667 0 1 0-34.133333 0Z"  /><path fill="#000000" d="M648.533333 426.666667m-17.066666 0a17.066667 17.066667 0 1 0 34.133333 0 17.066667 17.066667 0 1 0-34.133333 0Z"  /><path fill="#000000" d="M768 102.4c-6.826667 0-13.653333 0-20.48 3.413333h-3.413333c-13.653333 3.413333-23.893333 10.24-30.72 17.066667l-3.413334 3.413333-10.24 10.24-3.413333 3.413334-6.826667 6.826666c-3.413333 3.413333-3.413333 6.826667-6.826666 6.826667-10.24 13.653333-17.066667 30.72-17.066667 44.373333 0 6.826667-10.24 13.653333-17.066667 13.653334h-3.413333c-10.24 0-17.066667-10.24-13.653333-20.48 3.413333-20.48 13.653333-40.96 27.306666-61.44C621.226667 102.4 566.613333 68.266667 501.76 68.266667c-58.026667 0-112.64 30.72-146.773333 61.44 20.48 23.893333 34.133333 47.786667 37.546666 68.266666 0 10.24-3.413333 17.066667-13.653333 20.48H375.466667c-6.826667 0-13.653333-6.826667-17.066667-13.653333-3.413333-23.893333-20.48-47.786667-40.96-68.266667-10.24-10.24-23.893333-17.066667-34.133333-23.893333-10.24-3.413333-17.066667-6.826667-20.48-6.826667h-3.413334C252.586667 102.4 245.76 102.4 238.933333 102.4 170.666667 102.4 17.066667 378.88 17.066667 447.146667 17.066667 512 122.88 750.933333 170.666667 750.933333s119.466667-245.76 119.466666-290.133333c0-58.026667-17.066667-78.506667-23.893333-81.92-6.826667-6.826667-6.826667-17.066667 0-23.893333 6.826667-6.826667 17.066667-6.826667 23.893333 0 10.24 10.24 34.133333 37.546667 34.133334 105.813333 0 20.48-34.133333 177.493333-85.333334 273.066667v6.826666c-10.24 23.893333-17.066667 47.786667-17.066666 61.44 0 58.026667 47.786667 119.466667 136.533333 119.466667 51.2 0 102.4-37.546667 136.533333-81.92v-78.506667c-68.266667-30.72-102.4-58.026667-102.4-78.506666 0-34.133333 44.373333-68.266667 119.466667-68.266667s119.466667 34.133333 119.466667 68.266667c0 20.48-34.133333 47.786667-102.4 78.506666v88.746667c27.306667 40.96 68.266667 71.68 119.466666 71.68 88.746667 0 136.533333-78.506667 136.533334-136.533333 0-13.653333-3.413333-30.72-10.24-47.786667 0 0-75.093333-256-75.093334-276.48 0-68.266667 23.893333-95.573333 34.133334-105.813333 6.826667-6.826667 17.066667-6.826667 23.893333 0 6.826667 6.826667 6.826667 17.066667 0 23.893333-3.413333 3.413333-23.893333 23.893333-23.893333 81.92 0 44.373333 71.68 290.133333 119.466666 290.133333s153.6-245.76 153.6-307.2c0-75.093333-174.08-341.333333-238.933333-341.333333zM375.466667 477.866667c-27.306667 0-51.2-23.893333-51.2-51.2S348.16 375.466667 375.466667 375.466667s51.2 23.893333 51.2 51.2S402.773333 477.866667 375.466667 477.866667z m273.066666 0c-27.306667 0-51.2-23.893333-51.2-51.2S621.226667 375.466667 648.533333 375.466667s51.2 23.893333 51.2 51.2S675.84 477.866667 648.533333 477.866667z"  /><path fill="#000000" d="M597.333333 679.253333c0-6.826667-30.72-30.72-85.333333-30.72s-85.333333 23.893333-85.333333 34.133334c3.413333 6.826667 44.373333 30.72 85.333333 51.2 40.96-20.48 81.92-44.373333 85.333333-54.613334zM508.586667 880.64c-20.48 23.893333-44.373333 40.96-68.266667 54.613333 17.066667 10.24 40.96 20.48 75.093333 20.48 30.72 0 47.786667-10.24 61.44-20.48-27.306667-10.24-51.2-30.72-68.266666-54.613333z"  /></svg>