<?xml version="1.0" standalone="no"?><!DOCTYPE svg PUBLIC "-//W3C//DTD SVG 1.1//EN" "http://www.w3.org/Graphics/SVG/1.1/DTD/svg11.dtd"><svg class="icon" width="200px" height="200.00px" viewBox="0 0 1024 1024" version="1.1" xmlns="http://www.w3.org/2000/svg"><path fill="#000000" d="M354.986667 279.893333c10.24-6.826667 20.48-20.48 20.48-40.96s-6.826667-88.746667-95.573334-102.4h-23.893333C157.013333 136.533333 0 242.346667 0 385.706667 0 529.066667 78.506667 546.133333 81.92 546.133333h3.413333c3.413333 0 6.826667 0 10.24-3.413333 6.826667-3.413333 6.826667-10.24 6.826667-13.653333v-3.413334-6.826666-3.413334c0-17.066667 3.413333-44.373333 13.653333-68.266666 0-3.413333 3.413333-6.826667 6.826667-10.24 0 0 0-3.413333 3.413333-3.413334 3.413333-6.826667 6.826667-10.24 10.24-17.066666 3.413333-6.826667 6.826667-6.826667 6.826667-10.24l10.24-10.24c6.826667-3.413333 10.24-6.826667 17.066667-10.24 3.413333 0 3.413333-3.413333 6.826666-3.413334 6.826667-3.413333 13.653333-3.413333 20.48-6.826666 3.413333 0 3.413333 0 6.826667-3.413334 13.653333 3.413333 23.893333 3.413333 34.133333 3.413334h324.266667c10.24 0 17.066667-6.826667 17.066667-17.066667s-6.826667-17.066667-17.066667-17.066667c-81.92 0-177.493333-13.653333-208.213333-27.306666l-10.24-10.24c0-6.826667 0-10.24 3.413333-13.653334 0-3.413333 3.413333-6.826667 6.826667-10.24z m-122.88-3.413333c-10.24 0-20.48-10.24-20.48-20.48s10.24-20.48 20.48-20.48 20.48 10.24 20.48 20.48-6.826667 20.48-20.48 20.48z"  /><path fill="#000000" d="M1020.586667 757.76S955.733333 686.08 955.733333 409.6c0-252.586667-218.453333-341.333333-423.253333-341.333333h-34.133333C419.84 68.266667 358.4 68.266667 307.2 109.226667c58.026667 13.653333 85.333333 54.613333 95.573333 95.573333 37.546667 0 47.786667-3.413333 51.2-6.826667 6.826667-20.48 23.893333-27.306667 109.226667-27.306666 10.24 0 17.066667 6.826667 17.066667 17.066666s-6.826667 17.066667-17.066667 17.066667h-37.546667c3.413333 3.413333 3.413333 10.24 3.413334 17.066667 0 20.48-13.653333 34.133333-34.133334 34.133333-13.653333 0-27.306667-10.24-30.72-23.893333-13.653333 3.413333-30.72 6.826667-54.613333 6.826666 0 23.893333-10.24 40.96-17.066667 51.2 37.546667 10.24 109.226667 17.066667 170.666667 17.066667 27.306667 0 51.2 23.893333 51.2 51.2s-23.893333 51.2-51.2 51.2H303.786667c-44.373333 0-88.746667 3.413333-126.293334 13.653333-6.826667 3.413333-13.653333 6.826667-17.066666 13.653334-10.24 10.24-13.653333 20.48-17.066667 34.133333 37.546667-17.066667 92.16-23.893333 146.773333-23.893333h92.16c10.24 0 17.066667 6.826667 17.066667 17.066666s-6.826667 13.653333-17.066667 13.653334H300.373333c3.413333 17.066667 6.826667 40.96 6.826667 68.266666 0 54.613333-13.653333 81.92-30.72 109.226667-20.48 30.72-37.546667 64.853333-37.546667 129.706667 0 122.88 34.133333 160.426667 37.546667 167.253333 3.413333 3.413333 10.24 3.413333 13.653333 3.413333h6.826667c3.413333-3.413333 85.333333-40.96 105.813333-139.946666 64.853333 68.266667 201.386667 129.706667 218.453334 139.946666 3.413333 3.413333 10.24 3.413333 13.653333 0l10.24-10.24c0-3.413333 10.24-40.96-17.066667-129.706666 95.573333 47.786667 283.306667 71.68 307.2 75.093333 6.826667 0 13.653333-3.413333 17.066667-10.24 3.413333-6.826667 3.413333-13.653333-3.413333-20.48-13.653333-17.066667-44.373333-54.613333-58.026667-92.16 44.373333 17.066667 102.4 17.066667 112.64 17.066667 6.826667 0 13.653333-3.413333 17.066667-10.24 3.413333-6.826667 3.413333-13.653333 0-17.066667zM395.946667 716.8h-3.413334c-6.826667 0-13.653333-6.826667-17.066666-13.653333-3.413333-10.24 3.413333-17.066667 13.653333-20.48 34.133333-6.826667 44.373333-58.026667 54.613333-122.88 0-10.24 10.24-17.066667 20.48-13.653334 10.24 0 17.066667 10.24 13.653334 20.48-10.24 61.44-20.48 136.533333-81.92 150.186667z m283.306666-300.373333c0-10.24 3.413333-17.066667 3.413334-23.893334 0-10.24 6.826667-17.066667 17.066666-17.066666s17.066667 6.826667 17.066667 17.066666c0 6.826667 0 17.066667-3.413333 27.306667-3.413333 40.96-10.24 102.4 27.306666 129.706667 6.826667 3.413333 10.24 17.066667 6.826667 23.893333-3.413333 6.826667-10.24 6.826667-13.653333 6.826667-3.413333 0-6.826667 0-10.24-3.413334-54.613333-34.133333-47.786667-112.64-44.373334-160.426666z m54.613334 334.506666c-37.546667 0-112.64-61.44-119.466667-116.053333 0-10.24 6.826667-17.066667 13.653333-20.48 10.24 0 17.066667 6.826667 20.48 13.653333 3.413333 40.96 68.266667 88.746667 85.333334 88.746667 10.24 0 17.066667 6.826667 17.066666 17.066667s-6.826667 17.066667-17.066666 17.066666z"  /></svg>