<?xml version="1.0" standalone="no"?><!DOCTYPE svg PUBLIC "-//W3C//DTD SVG 1.1//EN" "http://www.w3.org/Graphics/SVG/1.1/DTD/svg11.dtd"><svg class="icon" width="200px" height="200.00px" viewBox="0 0 1024 1024" version="1.1" xmlns="http://www.w3.org/2000/svg"><path fill="#000000" d="M122.88 105.813333c17.066667 47.786667 75.093333 116.053333 109.226667 153.6 13.653333-20.48 34.133333-40.96 47.786666-54.613333-30.72-37.546667-112.64-81.92-157.013333-98.986667zM324.266667 785.066667c0-10.24-13.653333-30.72-40.96-51.2-54.613333-40.96-187.733333-75.093333-208.213334-68.266667-10.24 13.653333-17.066667 23.893333-17.066666 23.893333-3.413333 3.413333-6.826667 10.24-3.413334 17.066667s6.826667 10.24 13.653334 10.24c0 0 81.92 20.48 157.013333 68.266667 44.373333 30.72 78.506667 54.613333 105.813333 71.68L324.266667 785.066667z"  /><path fill="#000000" d="M870.4 358.4c0-10.24 17.066667-37.546667 34.133333-64.853333 40.96-61.44 102.4-157.013333 102.4-276.48 0-10.24-6.826667-17.066667-17.066666-17.066667-191.146667 0-307.2 102.4-334.506667 129.706667-51.2-34.133333-102.4-61.44-143.36-61.44s-95.573333 27.306667-143.36 61.44C341.333333 102.4 225.28 0 34.133333 0 23.893333 0 17.066667 6.826667 17.066667 17.066667c0 119.466667 61.44 215.04 102.4 276.48 17.066667 27.306667 34.133333 54.613333 34.133333 64.853333 0 23.893333-68.266667 81.92-129.706667 122.88-6.826667 3.413333-10.24 10.24-6.826666 17.066667s6.826667 13.653333 13.653333 13.653333c0 0 71.68 20.48 71.68 68.266667 0 17.066667-6.826667 34.133333-13.653333 51.2 54.613333 6.826667 163.84 40.96 211.626666 75.093333 20.48 13.653333 58.026667 44.373333 58.026667 78.506667v119.466666c0 37.546667 37.546667 119.466667 153.6 119.466667s153.6-81.92 153.6-119.466667V785.066667c0-30.72 34.133333-61.44 58.026667-78.506667 47.786667-34.133333 157.013333-71.68 211.626666-75.093333-6.826667-17.066667-13.653333-34.133333-13.653333-51.2 0-47.786667 71.68-68.266667 71.68-68.266667 6.826667-3.413333 10.24-6.826667 13.653333-13.653333s-3.413333-13.653333-6.826666-17.066667c-61.44-40.96-129.706667-98.986667-129.706667-122.88zM242.346667 307.2H238.933333c-3.413333 0-6.826667 0-10.24-3.413333-13.653333-13.653333-143.36-136.533333-143.36-218.453334 0-10.24 6.826667-17.066667 17.066667-17.066666 37.546667 0 184.32 71.68 215.04 129.706666 3.413333 6.826667 3.413333 13.653333-3.413333 20.48-30.72 30.72-54.613333 58.026667-58.026667 75.093334-3.413333 6.826667-6.826667 10.24-13.653333 13.653333z m184.32 228.693333c-10.24 27.306667-40.96 44.373333-75.093334 44.373334s-64.853333-17.066667-78.506666-44.373334v-13.653333c10.24-27.306667 40.96-44.373333 75.093333-44.373333s64.853333 17.066667 75.093333 44.373333c3.413333 3.413333 3.413333 10.24 3.413334 13.653333z m150.186666 406.186667c6.826667 6.826667 6.826667 17.066667 0 23.893333-3.413333 3.413333-6.826667 3.413333-13.653333 3.413334s-10.24 0-13.653333-3.413334L512 928.426667l-37.546667 37.546666c-6.826667 6.826667-17.066667 6.826667-23.893333 0s-6.826667-17.066667 0-23.893333l37.546667-37.546667c-30.72-20.48-44.373333-37.546667-44.373334-51.2 0-34.133333 51.2-34.133333 68.266667-34.133333s68.266667 0 68.266667 34.133333c0 13.653333-13.653333 30.72-40.96 54.613334l37.546666 34.133333zM750.933333 535.893333c-10.24 27.306667-40.96 44.373333-75.093333 44.373334s-64.853333-17.066667-75.093333-44.373334c-3.413333-3.413333-3.413333-10.24 0-13.653333 10.24-27.306667 40.96-44.373333 75.093333-44.373333s64.853333 17.066667 75.093333 44.373333v13.653333z m44.373334-232.106666c0 3.413333-6.826667 3.413333-10.24 3.413333h-3.413334c-6.826667 0-10.24-6.826667-10.24-10.24-3.413333-17.066667-27.306667-44.373333-58.026666-78.506667-6.826667-6.826667-6.826667-13.653333-3.413334-20.48C737.28 139.946667 884.053333 68.266667 921.6 68.266667c10.24 0 17.066667 6.826667 17.066667 17.066666 0 81.92-126.293333 204.8-143.36 218.453334z"  /><path fill="#000000" d="M310.613333 529.066667c17.066667 20.48 64.853333 20.48 78.506667 0-17.066667-20.48-61.44-20.48-78.506667 0zM952.32 665.6c-20.48-3.413333-153.6 30.72-208.213333 68.266667-30.72 20.48-40.96 40.96-40.96 51.2v71.68c23.893333-17.066667 61.44-40.96 105.813333-71.68 71.68-47.786667 153.6-68.266667 157.013333-68.266667 6.826667 0 10.24-6.826667 13.653334-10.24 3.413333-6.826667 0-13.653333-3.413334-17.066667-6.826667 0-17.066667-10.24-23.893333-23.893333zM634.88 529.066667c17.066667 20.48 64.853333 20.48 78.506667 0-17.066667-20.48-61.44-20.48-78.506667 0zM744.106667 204.8c13.653333 17.066667 34.133333 37.546667 47.786666 58.026667 37.546667-37.546667 95.573333-105.813333 109.226667-153.6-44.373333 13.653333-126.293333 58.026667-157.013333 95.573333z"  /></svg>