<?xml version="1.0" standalone="no"?><!DOCTYPE svg PUBLIC "-//W3C//DTD SVG 1.1//EN" "http://www.w3.org/Graphics/SVG/1.1/DTD/svg11.dtd"><svg class="icon" width="200px" height="200.00px" viewBox="0 0 1024 1024" version="1.1" xmlns="http://www.w3.org/2000/svg"><path fill="#000000" d="M866.670065 215.761488c30.692602-23.872024 64.795493-57.974914 68.205781-95.488095 3.410289-27.282313-3.410289-51.154336-27.282312-71.61607-57.974914-57.974914-112.53954-51.154336-136.411564-40.923469-34.102891 13.641156-61.385203 44.333758-75.02636 81.846938 71.616071 30.692602 129.590985 75.02636 170.514455 126.180696zM689.335032 123.683682c0 6.820578-3.410289 17.051445-3.410289 23.872024h17.051446l109.12925 85.257227 6.820578 13.641156s10.230867-3.410289 20.461735-10.230867c-37.51318-47.744047-88.667516-85.257227-150.05272-112.53954zM157.329935 215.761488c40.923469-54.564625 98.898383-95.488094 167.104165-126.180696C310.792944 52.067612 283.510632 21.37501 249.407741 7.733854c-23.872024-10.230867-78.436649-20.461734-136.411564 40.923469-20.461734 20.461734-30.692602 44.333758-27.282312 71.61607 6.820578 37.51318 40.923469 71.616071 71.61607 95.488095zM184.612248 236.223222c10.230867 6.820578 17.051445 10.230867 20.461735 10.230867l6.820578-13.641156 109.12925-85.257227h17.051446c0-6.820578 0-17.051445-3.410289-23.872024-61.385203 27.282313-112.53954 64.795493-150.05272 112.53954z"  /><path fill="#000000" d="M372.178148 931.922195c-6.820578 6.820578-6.820578 17.051445 0 23.872023 0 0 3.410289 3.410289 6.820578 3.410289 17.051445-3.410289 34.102891-6.820578 54.564625-10.230867 13.641156-3.410289 27.282313-6.820578 40.923469-6.820578H409.691328c-10.230867-6.820578-13.641156-13.641156-13.641157-13.641156-6.820578-3.410289-20.461734-3.410289-23.872023 3.410289zM593.846938 948.97364c17.051445 3.410289 34.102891 6.820578 54.564625 10.230867 3.410289-3.410289 3.410289-3.410289 6.820578-3.410289 6.820578-6.820578 6.820578-17.051445 0-23.872023-6.820578-6.820578-17.051445-6.820578-23.872023 0l-13.641156 13.641156h-61.385204c10.230867 0 23.872024 3.410289 37.51318 3.410289zM587.02636 983.076531c-23.872024-6.820578-51.154336-10.230867-75.02636-10.230867s-51.154336 6.820578-75.02636 10.230867c-6.820578 0-13.641156 3.410289-23.872023 3.410289 27.282313 20.461734 64.795493 37.51318 98.898383 37.51318s71.616071-17.051445 98.898383-37.51318c-10.230867 0-17.051445 0-23.872023-3.410289z"  /><path fill="#000000" d="M750.720236 393.09652m-17.051446 0a17.051445 17.051445 0 1 0 34.102891 0 17.051445 17.051445 0 1 0-34.102891 0Z"  /><path fill="#000000" d="M273.279764 393.09652m-17.051445 0a17.051445 17.051445 0 1 0 34.102891 0 17.051445 17.051445 0 1 0-34.102891 0Z"  /><path fill="#000000" d="M297.151788 491.994903c23.872024-20.461734 61.385203-51.154336 61.385203-64.795492 0-71.616071-78.436649-129.590985-81.846938-129.590985-6.820578-3.410289-6.820578-13.641156-3.410289-23.872024 6.820578-6.820578 17.051445-10.230867 23.872024-3.410289 3.410289 3.410289 95.488094 68.205782 95.488094 156.873298 0 27.282313-34.102891 57.974914-71.616071 92.077805-34.102891 30.692602-75.02636 64.795493-102.308672 112.53954-3.410289 6.820578-6.820578 13.641156-10.230867 17.051445-3.410289 6.820578-6.820578 13.641156-6.820578 17.051445v3.410289c-3.410289 6.820578-3.410289 10.230867-3.41029 17.051446v3.410289c0 6.820578-3.410289 10.230867-3.410289 17.051445v57.974915c0 6.820578 3.410289 10.230867 3.410289 17.051445 0 3.410289 0 6.820578 3.41029 10.230867 0 6.820578 3.410289 10.230867 3.410289 17.051446v17.051445c6.820578 20.461734 13.641156 37.51318 23.872023 51.154336 51.154336 95.488094 119.360118 88.667516 187.5659 75.02636 6.820578 0 10.230867-3.410289 17.051445-3.410289 20.461734-3.410289 37.51318-6.820578 57.974915-10.230867h23.872023c27.282313 0 51.154336 6.820578 78.436649 10.230867h3.410289c6.820578 0 13.641156 3.410289 20.461735 3.410289 20.461734 3.410289 37.51318 6.820578 57.974914 6.820578 13.641156 0 30.692602 0 44.333758-6.820578 3.410289 0 6.820578-3.410289 10.230867-3.410289 3.410289 0 6.820578-3.410289 10.230867-3.410289 17.051445-10.230867 30.692602-23.872024 47.744048-47.744047 3.410289-3.410289 6.820578-10.230867 10.230867-13.641156 3.410289-3.410289 6.820578-10.230867 6.820578-13.641157v-3.410289c3.410289-6.820578 3.410289-10.230867 6.820578-17.051445v-3.410289c3.410289-6.820578 6.820578-13.641156 6.820578-20.461735 0-3.410289 3.410289-6.820578 3.410289-13.641156 3.410289-6.820578 3.410289-10.230867 3.41029-17.051445 0-3.410289 0-6.820578 3.410289-10.230868 0-6.820578 3.410289-10.230867 3.410289-17.051445v-10.230867-17.051446-6.820578-17.051445-6.820579c0-6.820578 0-10.230867-3.410289-17.051445v-3.410289c0-6.820578-3.410289-13.641156-3.410289-17.051445v-3.41029c-3.410289-6.820578-3.410289-13.641156-6.820579-17.051445-3.410289-6.820578-6.820578-13.641156-10.230867-17.051445-27.282313-47.744047-68.205782-81.846938-102.308672-112.53954-37.51318-34.102891-71.616071-61.385203-71.616071-92.077805 0-88.667516 92.077805-153.463009 95.488094-156.873298 3.410289-6.820578 13.641156-6.820578 20.461735 0 6.820578 6.820578 3.410289 17.051445-3.410289 23.872024 0 0-81.846938 57.974914-81.846938 129.590985 0 13.641156 37.51318 44.333758 61.385203 64.795492 30.692602 27.282313 75.02636 64.795493 105.718962 112.53954 47.744047-54.564625 75.02636-119.360118 75.02636-194.386478 0-173.924743-180.745321-323.977463-392.183245-323.977463S119.816756 236.223222 119.816756 410.147965c0 75.02636 27.282313 143.232141 75.026359 194.386478 30.692602-47.744047 71.616071-85.257227 102.308673-112.53954z m504.722784-98.898383c0 27.282313-23.872024 51.154336-51.154336 51.154336s-51.154336-23.872024-51.154336-51.154336 23.872024-51.154336 51.154336-51.154336 51.154336 23.872024 51.154336 51.154336zM716.617345 682.971092c10.230867 0 17.051445 6.820578 17.051445 17.051445s-6.820578 17.051445-17.051445 17.051446c-30.692602 0-85.257227 64.795493-85.257227 85.257227 0 10.230867-6.820578 17.051445-17.051446 17.051445s-17.051445-6.820578-17.051445-17.051445c0-40.923469 71.616071-119.360118 119.360118-119.360118z m-306.926017 136.411563c-10.230867 0-17.051445-6.820578-17.051446-17.051445 0-20.461734-54.564625-85.257227-85.257227-85.257227-10.230867 0-17.051445-6.820578-17.051445-17.051446s6.820578-17.051445 17.051445-17.051445c47.744047 0 119.360118 78.436649 119.360118 119.360118 0 10.230867-6.820578 17.051445-17.051445 17.051445zM273.279764 341.942184c27.282313 0 51.154336 23.872024 51.154336 51.154336S300.562077 444.250856 273.279764 444.250856s-51.154336-23.872024-51.154336-51.154336S245.997452 341.942184 273.279764 341.942184z"  /></svg>