<?xml version="1.0" standalone="no"?><!DOCTYPE svg PUBLIC "-//W3C//DTD SVG 1.1//EN" "http://www.w3.org/Graphics/SVG/1.1/DTD/svg11.dtd"><svg class="icon" width="200px" height="200.00px" viewBox="0 0 1024 1024" version="1.1" xmlns="http://www.w3.org/2000/svg"><path fill="#000000" d="M341.333333 426.666667m-17.066666 0a17.066667 17.066667 0 1 0 34.133333 0 17.066667 17.066667 0 1 0-34.133333 0Z"  /><path fill="#000000" d="M682.666667 426.666667m-17.066667 0a17.066667 17.066667 0 1 0 34.133333 0 17.066667 17.066667 0 1 0-34.133333 0Z"  /><path fill="#000000" d="M512 409.6c-44.373333 0-68.266667 40.96-68.266667 119.466667 0 44.373333 30.72 92.16 68.266667 122.88 37.546667-30.72 68.266667-78.506667 68.266667-122.88 0-78.506667-23.893333-119.466667-68.266667-119.466667z"  /><path fill="#000000" d="M795.306667 136.533333c-64.853333 0-98.986667 23.893333-112.64 40.96 30.72 13.653333 58.026667 30.72 81.92 47.786667 6.826667 6.826667 10.24 17.066667 3.413333 23.893333-3.413333 3.413333-6.826667 6.826667-13.653333 6.826667-3.413333 0-6.826667 0-10.24-3.413333C689.493333 211.626667 604.16 170.666667 512 170.666667S334.506667 211.626667 283.306667 252.586667c-6.826667 3.413333-17.066667 3.413333-23.893334-3.413334-6.826667-6.826667-3.413333-20.48 3.413334-23.893333 20.48-17.066667 47.786667-34.133333 81.92-47.786667C327.68 160.426667 293.546667 136.533333 228.693333 136.533333 112.64 136.533333 17.066667 228.693333 17.066667 344.746667c0 119.466667 34.133333 160.426667 37.546666 163.84 3.413333 3.413333 10.24 3.413333 17.066667 3.413333s10.24-3.413333 13.653333-6.826667l10.24-20.48c6.826667 20.48 20.48 40.96 44.373334 54.613334 10.24 88.746667 47.786667 194.56 47.786666 197.973333 3.413333 10.24 10.24 13.653333 17.066667 13.653333s13.653333-6.826667 17.066667-13.653333l13.653333-54.613333c10.24 44.373333 30.72 102.4 58.026667 129.706666 6.826667 6.826667 10.24 6.826667 17.066666 6.826667s10.24-6.826667 13.653334-10.24l10.24-34.133333c6.826667 20.48 17.066667 44.373333 37.546666 64.853333 34.133333 34.133333 78.506667 51.2 139.946667 51.2s105.813333-17.066667 139.946667-51.2c20.48-20.48 30.72-47.786667 37.546666-68.266667l10.24 27.306667c3.413333 6.826667 6.826667 10.24 13.653334 10.24s10.24 0 17.066666-3.413333c27.306667-27.306667 40.96-75.093333 47.786667-116.053334l27.306667 61.44c3.413333 6.826667 10.24 10.24 17.066666 10.24s13.653333-6.826667 13.653334-13.653333c0-3.413333 23.893333-109.226667 34.133333-197.973333 30.72-20.48 47.786667-44.373333 54.613333-68.266667l20.48 34.133333c3.413333 3.413333 6.826667 6.826667 13.653334 6.826667s10.24 0 13.653333-6.826667c3.413333-3.413333 37.546667-44.373333 37.546667-163.84-3.413333-122.88-98.986667-215.04-215.04-215.04z m-580.266667 201.386667c-6.826667 6.826667-17.066667 3.413333-23.893333-3.413333-3.413333-3.413333-23.893333-37.546667-34.133334-68.266667-13.653333 13.653333-30.72 40.96-37.546666 64.853333-3.413333 6.826667-10.24 10.24-17.066667 10.24h-6.826667c-6.826667-3.413333-13.653333-13.653333-10.24-23.893333 6.826667-13.653333 37.546667-92.16 81.92-95.573333 3.413333 0 10.24 0 13.653334 3.413333 3.413333 3.413333 6.826667 10.24 6.826666 13.653333 0 27.306667 23.893333 64.853333 30.72 75.093334 6.826667 6.826667 3.413333 20.48-3.413333 23.893333zM341.333333 477.866667c-27.306667 0-51.2-23.893333-51.2-51.2S314.026667 375.466667 341.333333 375.466667s51.2 23.893333 51.2 51.2S368.64 477.866667 341.333333 477.866667z m238.933334 204.8c10.24 0 17.066667 6.826667 17.066666 17.066666s-6.826667 17.066667-17.066666 17.066667c-20.48 0-44.373333-10.24-68.266667-23.893333-23.893333 13.653333-47.786667 23.893333-68.266667 23.893333-10.24 0-17.066667-6.826667-17.066666-17.066667s6.826667-17.066667 17.066666-17.066666 23.893333-3.413333 37.546667-10.24C440.32 634.88 409.6 580.266667 409.6 529.066667c0-133.12 64.853333-153.6 102.4-153.6s102.4 20.48 102.4 153.6c0 51.2-30.72 105.813333-71.68 143.36 13.653333 6.826667 27.306667 10.24 37.546667 10.24z m102.4-204.8c-27.306667 0-51.2-23.893333-51.2-51.2S655.36 375.466667 682.666667 375.466667s51.2 23.893333 51.2 51.2S709.973333 477.866667 682.666667 477.866667z m245.76-136.533334H921.6c-6.826667 0-13.653333-3.413333-17.066667-10.24-6.826667-20.48-23.893333-51.2-37.546666-64.853333-10.24 34.133333-30.72 64.853333-34.133334 68.266667-6.826667 6.826667-17.066667 10.24-23.893333 3.413333-6.826667-6.826667-10.24-17.066667-3.413333-23.893333 10.24-13.653333 30.72-51.2 30.72-75.093334 0-3.413333 3.413333-10.24 6.826666-13.653333 3.413333-3.413333 6.826667-3.413333 13.653334-3.413333 47.786667 3.413333 78.506667 81.92 81.92 95.573333 3.413333 10.24-3.413333 20.48-10.24 23.893333z"  /></svg>