<?xml version="1.0" standalone="no"?><!DOCTYPE svg PUBLIC "-//W3C//DTD SVG 1.1//EN" "http://www.w3.org/Graphics/SVG/1.1/DTD/svg11.dtd"><svg class="icon" width="200px" height="200.00px" viewBox="0 0 1024 1024" version="1.1" xmlns="http://www.w3.org/2000/svg"><path fill="#000000" d="M477.980066 632.770764zM546.019934 632.770764zM512 779.056478L416.744186 816.478405l17.009967 34.019934h156.491694l17.009967-34.019934z"  /><path fill="#000000" d="M665.089701 0c-74.843854 0-105.461794 6.803987-153.089701 20.41196-47.627907-13.607973-74.843854-20.41196-153.089701-20.41196C267.056478 0 18.710963 95.255814 18.710963 401.435216c0 381.023256 136.079734 540.916944 139.481728 547.72093 6.803987 3.401993 13.607973 3.401993 20.41196 3.401994 6.803987-3.401993 10.20598-10.20598 10.20598-17.009967v-57.833887l88.451827 102.0598c3.401993 3.401993 10.20598 6.803987 13.607974 6.803987 6.803987 0 10.20598-3.401993 13.607973-6.803987l40.823921-54.431893 156.491694 95.255814c3.401993 0 6.803987 3.401993 10.20598 3.401993s6.803987 0 10.20598-3.401993l156.491694-95.255814 40.823921 54.431893c3.401993 3.401993 6.803987 6.803987 13.607973 6.803987 3.401993 0 10.20598-3.401993 13.607974-6.803987l88.451827-102.0598v57.833887c0 6.803987 3.401993 13.607973 10.20598 17.009967 6.803987 3.401993 13.607973 0 20.41196-3.401994 6.803987-6.803987 139.481728-166.697674 139.481728-547.72093C1005.289037 98.657807 750.139535 0 665.089701 0z m183.707641 401.435216l-102.0598 170.099668c-3.401993 6.803987-13.607973 10.20598-20.411961 6.803986l-44.225913-17.009966 47.627907 95.255814c3.401993 6.803987 3.401993 10.20598 0 17.009966l-119.069768 204.119602c-3.401993 6.803987-10.20598 10.20598-13.607973 10.20598h-173.501661c-6.803987 0-10.20598-3.401993-13.607974-10.20598l-119.069767-204.119602c-3.401993-3.401993-3.401993-10.20598 0-17.009966l51.0299-98.657808-61.23588 20.41196c-6.803987 3.401993-17.009967 0-20.41196-6.803986l-102.059801-170.099668c-3.401993-3.401993-3.401993-10.20598 0-13.607973C154.790698 384.425249 229.634551 170.099668 512 170.099668s340.199336 214.325581 340.199336 217.727575c0 3.401993 0 6.803987-3.401994 13.607973z"  /><path fill="#000000" d="M512 204.119601c-231.335548 0-306.179402 149.687708-319.787375 183.707642l91.85382 149.687707 88.451827-30.61794c6.803987-3.401993 13.607973 0 17.009967 3.401993 3.401993 6.803987 6.803987 13.607973 3.401994 20.41196l-64.637874 129.275748 71.44186 125.873754 95.255814-37.421927v-64.637874l-61.23588-40.82392c-3.401993-3.401993-6.803987-10.20598-6.803987-13.607973 0-6.803987 3.401993-10.20598 10.20598-13.607974l68.039867-34.019933c3.401993-3.401993 10.20598-3.401993 13.607974 0l68.039867 34.019933c6.803987 3.401993 10.20598 6.803987 10.20598 13.607974s-3.401993 10.20598-6.803987 13.607973l-61.23588 40.82392V748.438538l95.255814 37.421927 71.44186-125.873754-64.637874-129.275748c-3.401993-6.803987-3.401993-13.607973 3.401994-20.41196h20.41196l71.44186 27.215947 91.853821-149.687707c-13.607973-34.019934-74.843854-183.707641-306.179402-183.707642z m-85.049834 221.129568c0 10.20598-6.803987 17.009967-17.009967 17.009967-3.401993 0-10.20598-3.401993-13.607973-6.803986-6.803987 3.401993-13.607973 6.803987-20.41196 6.803986-27.215947 0-51.0299-23.813953-51.029901-51.0299v-6.803987c-23.813953 6.803987-51.0299 17.009967-61.23588 23.813954h-6.803987c-6.803987 0-13.607973-3.401993-17.009966-10.20598-3.401993-10.20598 0-17.009967 10.20598-23.813954 10.20598-3.401993 85.049834-34.019934 125.873754-34.019933 27.215947 0 51.0299 23.813953 51.0299 51.0299v34.019933z m357.209302-27.215946c-3.401993 6.803987-10.20598 10.20598-17.009966 10.20598h-6.803987c-13.607973-6.803987-37.421927-13.607973-61.23588-23.813954v6.803987c0 27.215947-23.813953 51.0299-51.029901 51.0299-6.803987 0-13.607973-3.401993-20.41196-6.803986-3.401993 3.401993-10.20598 6.803987-13.607973 6.803986-10.20598 0-17.009967-6.803987-17.009967-17.009967v-34.019933c0-27.215947 23.813953-51.0299 51.0299-51.0299 40.82392 0 115.667774 30.61794 125.873754 34.019933 6.803987 3.401993 13.607973 13.607973 10.20598 23.813954z"  /></svg>