<?xml version="1.0" standalone="no"?><!DOCTYPE svg PUBLIC "-//W3C//DTD SVG 1.1//EN" "http://www.w3.org/Graphics/SVG/1.1/DTD/svg11.dtd"><svg class="icon" width="200px" height="200.00px" viewBox="0 0 1024 1024" version="1.1" xmlns="http://www.w3.org/2000/svg"><path fill="#000000" d="M853.333333 389.12c-3.413333 10.24 3.413333 17.066667 13.653334 20.48h3.413333v204.8c-10.24 0-17.066667 6.826667-17.066667 17.066667s6.826667 17.066667 17.066667 17.066666h6.826667c6.826667-40.96 10.24-88.746667 10.24-153.6 0-51.2-6.826667-98.986667-17.066667-146.773333-6.826667 10.24-13.653333 23.893333-17.066667 40.96zM938.666667 307.2c-17.066667 0-30.72 3.413333-40.96 10.24 17.066667 54.613333 23.893333 116.053333 23.893333 177.493333 0 58.026667-3.413333 105.813333-10.24 146.773334 54.613333-20.48 112.64-81.92 112.64-194.56 0-102.4-44.373333-139.946667-85.333333-139.946667zM146.773333 648.533333h6.826667c10.24 0 17.066667-6.826667 17.066667-17.066666s-6.826667-17.066667-17.066667-17.066667v-204.8h3.413333c10.24-3.413333 13.653333-10.24 13.653334-20.48-3.413333-13.653333-10.24-27.306667-17.066667-37.546667-10.24 44.373333-17.066667 92.16-17.066667 143.36 0 61.44 3.413333 112.64 10.24 153.6zM102.4 494.933333c0-61.44 10.24-119.466667 23.893333-177.493333C116.053333 310.613333 102.4 307.2 85.333333 307.2 44.373333 307.2 0 344.746667 0 447.146667c0 109.226667 58.026667 170.666667 112.64 191.146666-6.826667-37.546667-10.24-85.333333-10.24-143.36z"  /><path fill="#000000" d="M542.72 955.733333h-47.786667c-75.093333 0-194.56-23.893333-273.066666-71.68 30.72 68.266667 116.053333 139.946667 269.653333 139.946667h44.373333c153.6 0 238.933333-68.266667 269.653334-136.533333-78.506667 47.786667-191.146667 68.266667-262.826667 68.266666zM252.586667 631.466667c-30.72-34.133333-47.786667-71.68-47.786667-136.533334 0-68.266667 61.44-150.186667 136.533333-150.186666 54.613333 0 78.506667 10.24 98.986667 20.48 13.653333 6.826667 27.306667 10.24 47.786667 10.24h44.373333c20.48 0 34.133333-6.826667 51.2-13.653334 20.48-10.24 47.786667-20.48 102.4-20.48 75.093333 0 136.533333 85.333333 136.533333 153.6 0 64.853333-17.066667 102.4-47.786666 136.533334 37.546667 30.72 61.44 71.68 71.68 122.88 20.48-40.96 40.96-119.466667 40.96-259.413334C887.466667 235.52 720.213333 0 532.48 0h-44.373333C303.786667 0 136.533333 235.52 136.533333 494.933333c0 136.533333 20.48 218.453333 40.96 262.826667 10.24-51.2 34.133333-92.16 75.093334-126.293333z"  /><path fill="#000000" d="M665.6 494.933333m-17.066667 0a17.066667 17.066667 0 1 0 34.133334 0 17.066667 17.066667 0 1 0-34.133334 0Z"  /><path fill="#000000" d="M204.8 808.96v20.48C262.826667 887.466667 406.186667 921.6 491.52 921.6h47.786667c92.16 0 225.28-34.133333 276.48-92.16V819.2c0-10.24 0-17.066667-3.413334-23.893333-6.826667-61.44-34.133333-112.64-78.506666-146.773334-3.413333-3.413333-6.826667-6.826667-6.826667-13.653333 0-3.413333 0-10.24 3.413333-13.653333 34.133333-34.133333 47.786667-64.853333 47.786667-126.293334 0-51.2-47.786667-119.466667-102.4-119.466666-47.786667 0-68.266667 10.24-88.746667 17.066666-17.066667 6.826667-34.133333 17.066667-64.853333 17.066667H477.866667c-27.306667 0-44.373333-6.826667-61.44-13.653333-20.48-6.826667-37.546667-17.066667-85.333334-17.066667-54.613333 0-102.4 64.853333-102.4 116.053333 0 61.44 17.066667 92.16 47.786667 126.293334 3.413333 3.413333 3.413333 6.826667 3.413333 13.653333s10.24 10.24 6.826667 13.653333c-51.2 34.133333-78.506667 92.16-81.92 160.426667zM665.6 443.733333c27.306667 0 51.2 23.893333 51.2 51.2s-23.893333 51.2-51.2 51.2-51.2-23.893333-51.2-51.2 23.893333-51.2 51.2-51.2z m-81.92 310.613334l34.133333-34.133334c6.826667-6.826667 17.066667-6.826667 23.893334 0s6.826667 17.066667 0 23.893334l-34.133334 34.133333c0 6.826667-6.826667 6.826667-10.24 6.826667s-10.24 0-13.653333-3.413334c-3.413333-6.826667-3.413333-20.48 0-27.306666zM494.933333 477.866667h34.133334c10.24 0 17.066667 6.826667 17.066666 17.066666s-6.826667 17.066667-17.066666 17.066667h-34.133334c-10.24 0-17.066667-6.826667-17.066666-17.066667s6.826667-17.066667 17.066666-17.066666z m0 68.266666h34.133334c10.24 0 17.066667 6.826667 17.066666 17.066667s-6.826667 17.066667-17.066666 17.066667h-34.133334c-10.24 0-17.066667-6.826667-17.066666-17.066667s6.826667-17.066667 17.066666-17.066667z m-54.613333 208.213334c6.826667 6.826667 6.826667 17.066667 0 23.893333-3.413333 6.826667-10.24 6.826667-13.653333 6.826667s-10.24 0-13.653334-3.413334l-34.133333-34.133333c-6.826667-6.826667-6.826667-17.066667 0-23.893333s17.066667-6.826667 23.893333 0l37.546667 30.72zM358.4 443.733333c27.306667 0 51.2 23.893333 51.2 51.2s-23.893333 51.2-51.2 51.2S307.2 522.24 307.2 494.933333s23.893333-51.2 51.2-51.2z"  /><path fill="#000000" d="M358.4 494.933333m-17.066667 0a17.066667 17.066667 0 1 0 34.133334 0 17.066667 17.066667 0 1 0-34.133334 0Z"  /></svg>