<?xml version="1.0" standalone="no"?><!DOCTYPE svg PUBLIC "-//W3C//DTD SVG 1.1//EN" "http://www.w3.org/Graphics/SVG/1.1/DTD/svg11.dtd"><svg class="icon" width="200px" height="200.00px" viewBox="0 0 1024 1024" version="1.1" xmlns="http://www.w3.org/2000/svg"><path fill="#000000" d="M290.133333 409.6m-34.133333 0a34.133333 34.133333 0 1 0 68.266667 0 34.133333 34.133333 0 1 0-68.266667 0Z"  /><path fill="#000000" d="M733.866667 409.6m-34.133334 0a34.133333 34.133333 0 1 0 68.266667 0 34.133333 34.133333 0 1 0-68.266667 0Z"  /><path fill="#000000" d="M996.693333 47.786667C986.453333 23.893333 969.386667 6.826667 945.493333 0h-10.24-3.413333c-27.306667 0-54.613333 13.653333-78.506667 44.373333v3.413334l-3.413333 3.413333-112.64 116.053333c-44.373333-37.546667-109.226667-78.506667-167.253333-88.746666 17.066667 167.253333 85.333333 556.373333 119.466666 590.506666 6.826667 6.826667 6.826667 17.066667 0 23.893334-3.413333 3.413333-6.826667 3.413333-10.24 3.413333-3.413333 0-10.24-3.413333-13.653333-6.826667C614.4 641.706667 546.133333 232.106667 532.48 68.266667v-10.24-6.826667-6.826667-6.826666-6.826667-6.826667-10.24c-3.413333-6.826667-10.24-13.653333-20.48-13.653333s-17.066667 6.826667-17.066667 17.066667V68.266667C477.866667 232.106667 409.6 641.706667 365.226667 686.08c-6.826667 6.826667-17.066667 6.826667-23.893334 0-6.826667-6.826667-6.826667-17.066667 0-23.893333 34.133333-34.133333 102.4-419.84 119.466667-590.506667-58.026667 17.066667-112.64 54.613333-153.6 92.16L174.08 47.786667H170.666667s0-3.413333-3.413334-3.413334C146.773333 13.653333 119.466667 0 92.16 0 64.853333 0 40.96 17.066667 27.306667 47.786667 3.413333 105.813333 27.306667 208.213333 71.68 262.826667 95.573333 293.546667 122.88 307.2 150.186667 307.2H170.666667l-34.133334 40.96c-20.48 30.72-23.893333 71.68-6.826666 102.4l54.613333 112.64-54.613333 129.706667c-17.066667 34.133333-13.653333 71.68 6.826666 102.4l119.466667 184.32C273.066667 1006.933333 307.2 1024 341.333333 1024h341.333334c34.133333 0 68.266667-17.066667 85.333333-47.786667l116.053333-180.906666c20.48-30.72 23.893333-71.68 6.826667-102.4l-54.613333-129.706667 54.613333-112.64c17.066667-34.133333 13.653333-71.68-6.826667-105.813333L853.333333 307.2h17.066667c27.306667 0 54.613333-13.653333 78.506667-44.373333 34.133333-40.96 54.613333-102.4 54.613333-157.013334v-6.826666c3.413333-17.066667 0-34.133333-6.826667-51.2zM184.32 245.76c-3.413333 6.826667-6.826667 10.24-13.653333 10.24h-6.826667c-10.24-3.413333-13.653333-13.653333-10.24-23.893333 10.24-27.306667 0-105.813333-34.133333-143.36-6.826667-6.826667-6.826667-20.48 3.413333-23.893334 6.826667-6.826667 17.066667-6.826667 23.893333 3.413334 40.96 44.373333 54.613333 136.533333 37.546667 177.493333zM221.866667 409.6c0-37.546667 30.72-68.266667 68.266666-68.266667s68.266667 30.72 68.266667 68.266667-30.72 68.266667-68.266667 68.266667-68.266667-30.72-68.266666-68.266667z m102.4 443.733333c-20.48 0-34.133333-13.653333-34.133334-34.133333s13.653333-34.133333 34.133334-34.133333 34.133333 13.653333 34.133333 34.133333-13.653333 34.133333-34.133333 34.133333z m375.466666 0c-20.48 0-34.133333-13.653333-34.133333-34.133333s13.653333-34.133333 34.133333-34.133333 34.133333 13.653333 34.133334 34.133333-13.653333 34.133333-34.133334 34.133333z m34.133334-375.466666c-37.546667 0-68.266667-30.72-68.266667-68.266667s30.72-68.266667 68.266667-68.266667 68.266667 30.72 68.266666 68.266667-30.72 68.266667-68.266666 68.266667z m170.666666-389.12c-34.133333 40.96-44.373333 116.053333-34.133333 143.36 3.413333 10.24 0 17.066667-10.24 23.893333H853.333333c-6.826667 0-13.653333-3.413333-17.066666-10.24-17.066667-40.96 0-133.12 40.96-180.906667 6.826667-6.826667 17.066667-6.826667 23.893333-3.413333 10.24 6.826667 10.24 20.48 3.413333 27.306667z"  /></svg>