<?xml version="1.0" standalone="no"?><!DOCTYPE svg PUBLIC "-//W3C//DTD SVG 1.1//EN" "http://www.w3.org/Graphics/SVG/1.1/DTD/svg11.dtd"><svg class="icon" width="200px" height="200.00px" viewBox="0 0 1024 1024" version="1.1" xmlns="http://www.w3.org/2000/svg"><path fill="#000000" d="M512 348.16m-17.066667 0a17.066667 17.066667 0 1 0 34.133334 0 17.066667 17.066667 0 1 0-34.133334 0Z"  /><path fill="#000000" d="M648.533333 723.626667m-17.066666 0a17.066667 17.066667 0 1 0 34.133333 0 17.066667 17.066667 0 1 0-34.133333 0Z"  /><path fill="#000000" d="M512 552.96m-51.2 0a51.2 51.2 0 1 0 102.4 0 51.2 51.2 0 1 0-102.4 0Z"  /><path fill="#000000" d="M375.466667 723.626667m-17.066667 0a17.066667 17.066667 0 1 0 34.133333 0 17.066667 17.066667 0 1 0-34.133333 0Z"  /><path fill="#000000" d="M996.693333 392.533333c-17.066667-17.066667-47.786667-23.893333-109.226666-23.893333-34.133333 0-68.266667 3.413333-102.4 3.413333-30.72 3.413333-58.026667 3.413333-81.92 3.413334-34.133333 0-40.96-3.413333-40.96-3.413334-10.24-10.24-27.306667-71.68-40.96-122.88-44.373333-153.6-68.266667-225.28-109.226667-225.28s-64.853333 71.68-109.226667 225.28c-13.653333 51.2-30.72 112.64-40.96 119.466667 0 0-10.24 3.413333-44.373333 3.413333-23.893333 0-51.2 0-81.92-3.413333-34.133333-3.413333-68.266667-3.413333-98.986667-3.413333-61.44 0-95.573333 6.826667-112.64 23.893333-6.826667 6.826667-10.24 17.066667-10.24 27.306667 0 23.893333 37.546667 58.026667 126.293334 133.12 44.373333 37.546667 109.226667 92.16 112.64 105.813333 0 10.24-10.24 44.373333-20.48 78.506667-40.96 136.533333-71.68 242.346667-20.48 262.826666 3.413333 0 6.826667 3.413333 10.24 3.413334 30.72 0 78.506667-37.546667 157.013333-98.986667 44.373333-34.133333 112.64-88.746667 129.706667-88.746667s85.333333 54.613333 129.706666 88.746667c78.506667 61.44 126.293333 98.986667 157.013334 98.986667 3.413333 0 6.826667 0 10.24-3.413334 51.2-20.48 23.893333-126.293333-20.48-262.826666-10.24-30.72-20.48-68.266667-20.48-75.093334 3.413333-17.066667 71.68-71.68 116.053333-109.226666 88.746667-75.093333 122.88-105.813333 122.88-129.706667 3.413333-10.24 0-20.48-6.826667-27.306667zM170.666667 467.626667c-10.24 0-17.066667-6.826667-17.066667-17.066667s6.826667-17.066667 17.066667-17.066667 17.066667 6.826667 17.066666 17.066667-6.826667 17.066667-17.066666 17.066667z m624.64 512zM512 194.56c10.24 0 17.066667 6.826667 17.066667 17.066667s-6.826667 17.066667-17.066667 17.066666-17.066667-6.826667-17.066667-17.066666c0-6.826667 6.826667-17.066667 17.066667-17.066667z m0 102.4c27.306667 0 51.2 23.893333 51.2 51.2s-23.893333 51.2-51.2 51.2-51.2-23.893333-51.2-51.2 23.893333-51.2 51.2-51.2z m-256 187.733333c0-27.306667 23.893333-51.2 51.2-51.2s51.2 23.893333 51.2 51.2-23.893333 51.2-51.2 51.2-51.2-20.48-51.2-51.2zM307.2 843.093333c-10.24 0-17.066667-6.826667-17.066667-17.066666s6.826667-17.066667 17.066667-17.066667 17.066667 6.826667 17.066667 17.066667-6.826667 17.066667-17.066667 17.066666z m68.266667-68.266666c-27.306667 0-51.2-23.893333-51.2-51.2s23.893333-51.2 51.2-51.2 51.2 23.893333 51.2 51.2-23.893333 51.2-51.2 51.2z m136.533333-136.533334c-47.786667 0-85.333333-37.546667-85.333333-85.333333s37.546667-85.333333 85.333333-85.333333 85.333333 37.546667 85.333333 85.333333-37.546667 85.333333-85.333333 85.333333z m136.533333 136.533334c-27.306667 0-51.2-23.893333-51.2-51.2s23.893333-51.2 51.2-51.2 51.2 23.893333 51.2 51.2-23.893333 51.2-51.2 51.2z m68.266667 68.266666c-10.24 0-17.066667-6.826667-17.066667-17.066666s6.826667-17.066667 17.066667-17.066667 17.066667 6.826667 17.066667 17.066667-6.826667 17.066667-17.066667 17.066666z m0-307.2c-27.306667 0-51.2-23.893333-51.2-51.2s23.893333-51.2 51.2-51.2 51.2 23.893333 51.2 51.2-23.893333 51.2-51.2 51.2z m136.533333-68.266666c-10.24 0-17.066667-6.826667-17.066666-17.066667s6.826667-17.066667 17.066666-17.066667 17.066667 6.826667 17.066667 17.066667-6.826667 17.066667-17.066667 17.066667z"  /><path fill="#000000" d="M716.8 484.693333m-17.066667 0a17.066667 17.066667 0 1 0 34.133334 0 17.066667 17.066667 0 1 0-34.133334 0Z"  /><path fill="#000000" d="M307.2 484.693333m-17.066667 0a17.066667 17.066667 0 1 0 34.133334 0 17.066667 17.066667 0 1 0-34.133334 0Z"  /></svg>