<?xml version="1.0" standalone="no"?><!DOCTYPE svg PUBLIC "-//W3C//DTD SVG 1.1//EN" "http://www.w3.org/Graphics/SVG/1.1/DTD/svg11.dtd"><svg class="icon" width="200px" height="200.00px" viewBox="0 0 1024 1024" version="1.1" xmlns="http://www.w3.org/2000/svg"><path fill="#000000" d="M1017.173333 634.88l-6.826666-3.413333c-61.44 116.053333-170.666667 242.346667-351.573334 242.346666-310.613333 0-372.053333-37.546667-378.88-40.96-6.826667-6.826667-10.24-17.066667-3.413333-23.893333 6.826667-6.826667 17.066667-10.24 23.893333-3.413333 3.413333 0 61.44 37.546667 358.4 37.546666 174.08 0 276.48-133.12 334.506667-245.76 20.48-51.2 30.72-88.746667 30.72-92.16 3.413333-10.24-3.413333-17.066667-13.653333-20.48-3.413333 0-75.093333-17.066667-310.613334-17.066666-187.733333 0-375.466667 139.946667-450.56 208.213333 17.066667-47.786667 64.853333-85.333333 122.88-136.533333 20.48-17.066667 44.373333-37.546667 68.266667-58.026667 71.68-64.853333 95.573333-201.386667 51.2-307.2C453.973333 71.68 375.466667 17.066667 276.48 17.066667 92.16 17.066667 0 102.4 0 273.066667v3.413333c0 6.826667 3.413333 17.066667 10.24 30.72L68.266667 484.693333c3.413333 6.826667 10.24 10.24 17.066666 10.24s13.653333-3.413333 17.066667-10.24l58.026667-146.773333c17.066667-17.066667 23.893333-44.373333 23.893333-64.853333 0-10.24 20.48-51.2 54.613333-51.2 40.96 0 68.266667 3.413333 68.266667 68.266666 0 71.68-51.2 129.706667-109.226667 187.733334-10.24 10.24-23.893333 20.48-34.133333 34.133333-68.266667 64.853333-163.84 150.186667-163.84 259.413333 0 126.293333 98.986667 235.52 211.626667 235.52 71.68 0 112.64-17.066667 129.706666-30.72 20.48 13.653333 68.266667 30.72 170.666667 30.72 98.986667 0 341.333333-34.133333 508.586667-351.573333 6.826667-6.826667 3.413333-17.066667-3.413334-20.48z m-535.893333 58.026667c47.786667-71.68 317.44-163.84 423.253333-163.84 6.826667 0 13.653333 3.413333 17.066667 10.24 3.413333 6.826667 0 13.653333-3.413333 17.066666-10.24 10.24-238.933333 245.76-368.64 245.76-10.24 0-17.066667-6.826667-17.066667-17.066666s6.826667-17.066667 17.066667-17.066667c81.92 0 228.693333-122.88 310.613333-201.386667-116.053333 17.066667-317.44 92.16-348.16 143.36-3.413333 6.826667-17.066667 10.24-23.893333 6.826667-10.24-6.826667-13.653333-17.066667-6.826667-23.893333zM51.2 238.933333c0-10.24 6.826667-17.066667 17.066667-17.066666s17.066667 6.826667 17.066666 17.066666-6.826667 17.066667-17.066666 17.066667-17.066667-6.826667-17.066667-17.066667z m34.133333 191.146667l-23.893333-71.68c13.653333 0 23.893333-6.826667 27.306667-10.24 6.826667 6.826667 17.066667 10.24 27.306666 10.24l-30.72 71.68z"  /></svg>