<?xml version="1.0" standalone="no"?><!DOCTYPE svg PUBLIC "-//W3C//DTD SVG 1.1//EN" "http://www.w3.org/Graphics/SVG/1.1/DTD/svg11.dtd"><svg class="icon" width="200px" height="200.00px" viewBox="0 0 1024 1024" version="1.1" xmlns="http://www.w3.org/2000/svg"><path fill="#000000" d="M341.333333 494.933333m-17.066666 0a17.066667 17.066667 0 1 0 34.133333 0 17.066667 17.066667 0 1 0-34.133333 0Z"  /><path fill="#000000" d="M597.333333 750.933333c0-10.24-40.96-34.133333-85.333333-34.133333s-85.333333 23.893333-85.333333 34.133333c3.413333 6.826667 44.373333 30.72 85.333333 44.373334 40.96-17.066667 81.92-37.546667 85.333333-44.373334zM395.946667 1000.106667s51.2 23.893333 116.053333 23.893333 116.053333-23.893333 116.053333-23.893333 0-3.413333 3.413334-3.413334L512 918.186667l-116.053333 81.92z"  /><path fill="#000000" d="M682.666667 494.933333m-17.066667 0a17.066667 17.066667 0 1 0 34.133333 0 17.066667 17.066667 0 1 0-34.133333 0Z"  /><path fill="#000000" d="M1000.106667 116.053333c-92.16 51.2-129.706667 163.84-129.706667 163.84-3.413333 6.826667-10.24 10.24-17.066667 10.24h-6.826666c-10.24-3.413333-13.653333-13.653333-10.24-20.48 3.413333-6.826667 51.2-143.36 167.253333-191.146666 0-20.48 3.413333-37.546667 3.413333-58.026667 0-13.653333-6.826667-20.48-17.066666-20.48-64.853333 0-116.053333 23.893333-153.6 51.2 0 10.24-6.826667 17.066667-17.066667 17.066667h-6.826667c-3.413333 0-6.826667 0-10.24 3.413333-3.413333 0-6.826667 0-10.24 3.413333-3.413333 0-6.826667 3.413333-10.24 3.413334-3.413333 0-10.24 3.413333-13.653333 3.413333-3.413333 0-3.413333 0-6.826667 3.413333-6.826667 3.413333-13.653333 3.413333-20.48 6.826667 0 0-3.413333 0-3.413333 3.413333-30.72 13.653333-68.266667 30.72-98.986667 44.373334-3.413333 0-6.826667 3.413333-6.826666 3.413333-6.826667 0-13.653333-3.413333-13.653334-10.24-3.413333-6.826667 0-17.066667 6.826667-23.893333 17.066667-6.826667 40.96-20.48 64.853333-30.72C638.293333 51.2 573.44 34.133333 512 34.133333c-61.44 0-126.293333 17.066667-177.493333 40.96 27.306667 13.653333 51.2 23.893333 68.266666 30.72 6.826667 3.413333 10.24 13.653333 6.826667 23.893334-3.413333 6.826667-10.24 10.24-13.653333 10.24-3.413333 0-6.826667 0-6.826667-3.413334-27.306667-13.653333-58.026667-30.72-88.746667-40.96C262.826667 81.92 228.693333 68.266667 208.213333 68.266667H204.8c-6.826667 0-13.653333-6.826667-13.653333-17.066667C150.186667 23.893333 98.986667 0 34.133333 0 23.893333 0 17.066667 6.826667 17.066667 17.066667v23.893333c119.466667 54.613333 167.253333 238.933333 170.666666 245.76 3.413333 6.826667-3.413333 17.066667-13.653333 20.48H170.666667c-6.826667 0-13.653333-6.826667-17.066667-13.653333 0-3.413333-40.96-160.426667-133.12-215.04 10.24 116.053333 40.96 208.213333 88.746667 256-68.266667 98.986667-92.16 218.453333-92.16 303.786666 0 75.093333 180.906667 170.666667 273.066666 211.626667-20.48-47.786667-34.133333-92.16-34.133333-119.466667 0-75.093333 78.506667-136.533333 88.746667-143.36 6.826667-6.826667 17.066667-3.413333 23.893333 3.413334s3.413333 17.066667-3.413333 23.893333c-3.413333 3.413333-75.093333 58.026667-75.093334 116.053333 0 23.893333 17.066667 78.506667 44.373334 139.946667 13.653333 37.546667 30.72 71.68 40.96 95.573333v3.413334l119.466666-78.506667v-64.853333c-47.786667-17.066667-102.4-44.373333-102.4-75.093334 0-40.96 61.44-68.266667 119.466667-68.266666s119.466667 27.306667 119.466667 68.266666c0 30.72-54.613333 54.613333-102.4 75.093334v64.853333l119.466666 78.506667c10.24-23.893333 27.306667-58.026667 40.96-95.573334 23.893333-61.44 44.373333-116.053333 44.373334-139.946666 0-58.026667-71.68-112.64-75.093334-116.053334-6.826667-6.826667-10.24-17.066667-3.413333-23.893333s17.066667-10.24 23.893333-3.413333c10.24 6.826667 88.746667 68.266667 88.746667 143.36 0 23.893333-13.653333 71.68-34.133333 119.466666 92.16-40.96 273.066667-136.533333 273.066666-211.626666 0-71.68-20.48-208.213333-88.746666-314.026667 40.96-44.373333 71.68-119.466667 81.92-211.626667z m-750.933334 10.24c0-3.413333-3.413333-10.24-6.826666-13.653333 6.826667 3.413333 10.24 3.413333 17.066666 6.826667l-10.24 6.826666zM341.333333 546.133333c-27.306667 0-51.2-23.893333-51.2-51.2S314.026667 443.733333 341.333333 443.733333s51.2 23.893333 51.2 51.2S368.64 546.133333 341.333333 546.133333z m341.333334 0c-27.306667 0-51.2-23.893333-51.2-51.2S655.36 443.733333 682.666667 443.733333s51.2 23.893333 51.2 51.2S709.973333 546.133333 682.666667 546.133333z m92.16-419.84l-10.24-6.826666c6.826667-3.413333 10.24-3.413333 17.066666-6.826667-3.413333 3.413333-6.826667 10.24-6.826666 13.653333z"  /></svg>